<svg width="16" height="16" viewBox="0 0 16 16" fill="none" xmlns="http://www.w3.org/2000/svg">
<path opacity="0.5" d="M8.62992 8.54171L7.60264 9.56898C7.48726 9.68437 7.43437 9.80723 7.44398 9.93756C7.4536 10.0679 7.5161 10.1908 7.63148 10.3061C7.74687 10.4215 7.87498 10.4792 8.01581 10.4792C8.15666 10.4792 8.28388 10.4215 8.39748 10.3061L10.2439 8.45977C10.3773 8.32637 10.444 8.17187 10.444 7.99627C10.444 7.82067 10.3756 7.66703 10.2388 7.53533L8.36864 5.66514C8.25325 5.54976 8.13039 5.49206 8.00006 5.49206C7.86973 5.49206 7.74687 5.54976 7.63148 5.66514C7.5161 5.78052 7.45842 5.90863 7.45842 6.04948C7.45842 6.19033 7.5161 6.31755 7.63148 6.43114L8.62992 7.45842H5.7441C5.59232 7.45842 5.4651 7.50993 5.36241 7.61296C5.25975 7.71598 5.20842 7.84365 5.20842 7.99596C5.20842 8.14826 5.25975 8.2773 5.36241 8.38306C5.4651 8.48882 5.59232 8.54171 5.7441 8.54171H8.62992ZM8.00721 15.5834C6.96398 15.5834 5.98148 15.386 5.05971 14.9913C4.13792 14.5966 3.3311 14.0534 2.63925 13.3619C1.94739 12.6704 1.40401 11.8642 1.0091 10.9434C0.6142 10.0227 0.416748 9.03882 0.416748 7.99192C0.416748 6.945 0.614109 5.96412 1.00883 5.04929C1.40355 4.13444 1.94668 3.3311 2.63821 2.63925C3.32975 1.94739 4.13591 1.40401 5.05669 1.0091C5.97746 0.6142 6.9613 0.416748 8.00821 0.416748C9.05512 0.416748 10.036 0.61411 10.9508 1.00883C11.8657 1.40355 12.669 1.94668 13.3609 2.63821C14.0527 3.32975 14.5961 4.13428 14.991 5.05181C15.3859 5.96934 15.5834 6.94971 15.5834 7.99292C15.5834 9.03614 15.386 10.0186 14.9913 10.9404C14.5966 11.8622 14.0534 12.669 13.3619 13.3609C12.6704 14.0527 11.8658 14.5961 10.9483 14.991C10.0308 15.3859 9.05041 15.5834 8.00721 15.5834ZM8.00006 14.5001C9.80562 14.5001 11.3403 13.8681 12.6042 12.6042C13.8681 11.3403 14.5001 9.80562 14.5001 8.00006C14.5001 6.19451 13.8681 4.65978 12.6042 3.39589C11.3403 2.13201 9.80562 1.50006 8.00006 1.50006C6.1945 1.50006 4.65978 2.13201 3.39589 3.39589C2.132 4.65978 1.50006 6.19451 1.50006 8.00006C1.50006 9.80562 2.132 11.3403 3.39589 12.6042C4.65978 13.8681 6.1945 14.5001 8.00006 14.5001Z" fill="white"/>
</svg>
