<svg width="24" height="18" viewBox="0 0 24 18" fill="none" xmlns="http://www.w3.org/2000/svg">
<path d="M0.75 7.625V15.875C0.75 16.6355 1.37842 17.25 2.15625 17.25H4.96875V12.4375C4.96875 12.0594 5.28516 11.75 5.67188 11.75C6.05859 11.75 6.375 12.0594 6.375 12.4375V17.25H9.1875V12.4375C9.1875 12.0594 9.50391 11.75 9.89062 11.75C10.2773 11.75 10.5938 12.0594 10.5938 12.4375V17.25H13.4062V12.4375C13.4062 12.0594 13.7227 11.75 14.1094 11.75C14.4961 11.75 14.8125 12.0594 14.8125 12.4375V17.25H17.625V12.4375C17.625 12.0594 17.9414 11.75 18.3281 11.75C18.7148 11.75 19.0312 12.0594 19.0312 12.4375V17.25H21.8438C22.6216 17.25 23.25 16.6355 23.25 15.875V7.625C23.25 6.86445 22.6216 6.25 21.8438 6.25H20.4375V4.875C20.4375 4.11445 19.8091 3.5 19.0312 3.5H17.625V2.125C17.625 1.36445 16.9966 0.75 16.2188 0.75H7.78125C7.00342 0.75 6.375 1.36445 6.375 2.125V3.5H4.96875C4.19092 3.5 3.5625 4.11445 3.5625 4.875V6.25H2.15625C1.37842 6.25 0.75 6.86445 0.75 7.625Z" fill="#8D92A8"/>
</svg>
