<svg width="28" height="28" viewBox="0 0 28 28" fill="none" xmlns="http://www.w3.org/2000/svg">
<path d="M13.9955 27.2707C12.1786 27.2707 10.4636 26.9227 8.85043 26.2266C7.23724 25.5304 5.82846 24.5802 4.62407 23.3758C3.4197 22.1715 2.46947 20.7627 1.77335 19.1495C1.07724 17.5363 0.729187 15.8213 0.729187 14.0044C0.729187 12.1653 1.0777 10.4426 1.77474 8.83619C2.47175 7.22981 3.42052 5.82583 4.62104 4.62426C5.82159 3.42272 7.22944 2.47315 8.84459 1.77555C10.4598 1.07794 12.1745 0.729126 13.9888 0.729126C14.2818 0.729126 14.5149 0.815764 14.6881 0.989038C14.8613 1.16231 14.9479 1.38584 14.9479 1.65962C14.9479 1.93339 14.8613 2.16273 14.6881 2.34762C14.5149 2.53249 14.2856 2.62492 14 2.62492C10.8482 2.62492 8.16438 3.72475 5.94863 5.9244C3.73287 8.12406 2.62498 10.8098 2.62498 13.9817C2.62498 17.1536 3.73287 19.8454 5.94863 22.0572C8.16438 24.269 10.8482 25.3749 14 25.3749C17.184 25.3749 19.8759 24.267 22.0755 22.0513C24.2752 19.8355 25.375 17.1517 25.375 13.9999C25.375 13.7139 25.4676 13.4844 25.6528 13.3114C25.838 13.1385 26.0675 13.052 26.3413 13.052C26.6151 13.052 26.8384 13.1386 27.0113 13.3118C27.1843 13.485 27.2708 13.7181 27.2708 14.0111C27.2708 15.8254 26.922 17.5401 26.2244 19.1553C25.5268 20.7705 24.5772 22.1783 23.3756 23.3789C22.1741 24.5794 20.7701 25.5282 19.1637 26.2252C17.5573 26.9222 15.8346 27.2707 13.9955 27.2707Z" fill="white"/>
</svg>
